/vscmnt/brussel_pixiu_data/_data_brussel/112/vsc11236/PredSimResults/SUBJ09opt3D/expIG/worker_05.mot
version=1
nRows=8
nColumns=50
inDegrees=yes
endheader
                time	         pelvis_tilt	         pelvis_list	     pelvis_rotation	           pelvis_tx	           pelvis_ty	           pelvis_tz	       hip_flexion_r	     hip_adduction_r	      hip_rotation_r	        knee_angle_r	       ankle_angle_r	         mtp_angle_r	       hip_flexion_l	     hip_adduction_l	      hip_rotation_l	        knee_angle_l	       ankle_angle_l	         mtp_angle_l	    lumbar_extension	      lumbar_bending	     lumbar_rotation	 ercspn_r/activation	 intobl_r/activation	 extobl_r/activation	    abd_r/activation	    add_r/activation	hamstrings_r/activation	bifemsh_r/activation	glut_max_r/activation	iliopsoas_r/activation	rect_fem_r/activation	  vasti_r/activation	gastroc_r/activation	 soleus_r/activation	tib_ant_r/activation	 ercspn_l/activation	 intobl_l/activation	 extobl_l/activation	    abd_l/activation	    add_l/activation	hamstrings_l/activation	bifemsh_l/activation	glut_max_l/activation	iliopsoas_l/activation	rect_fem_l/activation	  vasti_l/activation	gastroc_l/activation	 soleus_l/activation	tib_ant_l/activation	
          0.00000000	         -3.31823448	         -0.80083148	          8.52309021	          0.00000000	          0.99750231	         -0.00386782	         24.10588218	         -1.08028547	         -9.95141621	         -1.08442430	          2.01761593	          0.23877354	        -11.10555574	         -2.92700110	         -8.56345564	        -13.51958438	          5.45546900	         34.24791666	        -12.94279644	         -2.12786245	         -8.00746561	          0.01838624	          0.18514766	          0.04894984	          0.00999999	          0.22965004	          0.04720035	          0.02802475	          0.03381491	          0.08887132	          0.02294151	          0.01831797	          0.01244473	          0.00999999	          0.30273375	          0.00999999	          0.00999999	          0.00999999	          0.04204318	          0.00999999	          0.02285933	          0.08280778	          0.02331697	          0.00999999	          0.00999999	          0.00999999	          0.23426292	          0.23095322	          0.00999999	
          0.01444338	         -3.41079980	         -0.93777655	          8.38540694	          0.01950160	          0.99542491	         -0.00269283	         23.39952085	         -0.74145673	        -10.20844356	         -1.52362160	          1.43776939	          0.21144022	        -11.57967952	         -3.33475699	         -9.23669027	        -14.47298400	          4.49920733	         35.73526583	        -12.31195730	         -1.60275919	         -8.19092893	          0.01481898	          0.16528889	          0.03945268	          0.06223588	          0.18509372	          0.05760077	          0.02258744	          0.03054425	          0.07162866	          0.01849044	          0.01476395	          0.01240722	          0.01240722	          0.34787581	          0.00999999	          0.00999999	          0.00999999	          0.03388603	          0.00999999	          0.02730783	          0.06674155	          0.01879305	          0.00999999	          0.00999999	          0.01000004	          0.20340722	          0.20900189	          0.00999999	
          0.02888676	         -3.48271733	         -1.11603942	          8.20702991	          0.03922137	          0.99374786	         -0.00143008	         22.57912876	         -0.35039821	        -10.50433387	         -1.76603903	          0.57622417	          0.20306417	        -11.82010223	         -3.83203147	         -9.92566214	        -15.88629383	          3.38130557	         37.18074179	        -11.67472503	         -1.01772499	         -8.32852041	          0.01194382	          0.13321981	          0.03179813	          0.10743248	          0.14918215	          0.06227378	          0.01820506	          0.05419182	          0.05773138	          0.01490295	          0.01189947	          0.00999999	          0.00999999	          0.40046546	          0.00999999	          0.00999999	          0.00999999	          0.02731152	          0.00999999	          0.02737281	          0.05379247	          0.01514685	          0.00999999	          0.00999999	          0.00999999	          0.16394249	          0.17852844	          0.00999999	
          0.04333014	         -3.53682453	         -1.32563049	          7.99229520	          0.05875884	          0.99277210	         -0.00006155	         21.77431996	          0.07753717	        -10.81370714	         -2.05440926	         -0.18339012	          0.16816461	        -11.71546924	         -4.42783395	        -10.61408831	        -17.89933894	          2.07199425	         38.44241939	        -11.07854897	         -0.38661430	         -8.42121576	          0.01000000	          0.10737273	          0.02562871	          0.15306892	          0.12023808	          0.06076650	          0.01467295	          0.07394213	          0.04653044	          0.01201151	          0.02249214	          0.00999999	          0.00999999	          0.42497228	          0.04892954	          0.00999999	          0.00999999	          0.02201258	          0.00999999	          0.04169432	          0.04335574	          0.01220809	          0.00999999	          0.00999999	          0.01539392	          0.13213464	          0.14389065	          0.00999999	
          0.05777352	         -3.57575665	         -1.56026108	          7.75296851	          0.07780555	          0.99274471	          0.00139760	         21.03673874	          0.53005977	        -11.05171691	         -2.50104891	         -0.58198621	          0.13489989	        -11.20112322	         -5.13026112	        -11.30186057	        -20.56728468	          0.55239143	         39.28416842	        -10.55485091	          0.28056633	         -8.47565479	          0.00999999	          0.08654045	          0.02065627	          0.17720683	          0.09768574	          0.06061695	          0.01182613	          0.10401773	          0.03750268	          0.00999999	          0.04781699	          0.00999999	          0.00999999	          0.41862783	          0.07647326	          0.00999999	          0.00999999	          0.01774174	          0.05860999	          0.05687299	          0.03494394	          0.00999999	          0.00999999	          0.00999999	          0.01240722	          0.10649810	          0.11597323	          0.00999999	
          0.07221690	         -3.60267490	         -1.78448099	          7.49496643	          0.09615582	          0.99379835	          0.00289922	         20.33210035	          0.97478148	        -11.18470050	         -3.02115729	         -0.63680997	          0.10978189	        -10.23730248	         -5.91768366	        -12.05682541	        -23.93362614	         -1.07525947	         39.23531659	        -10.12497476	          0.94382950	         -8.49734015	          0.01445783	          0.06975002	          0.01664858	          0.17649554	          0.09596305	          0.06752763	          0.00999999	          0.10224700	          0.03022647	          0.00999999	          0.06991376	          0.00999999	          0.01136588	          0.39352099	          0.06568106	          0.00999999	          0.00999999	          0.01429952	          0.09781164	          0.06460927	          0.02816417	          0.00999999	          0.00999999	          0.00999999	          0.00999999	          0.08583552	          0.09347230	          0.00999999	
          0.08666028	         -3.61741092	         -1.94036452	          7.21126148	          0.11379891	          0.99581664	          0.00439567	         19.60542736	          1.35572567	        -11.25467458	         -3.51034036	         -0.44898370	          0.09955160	         -8.84314934	         -6.75321282	        -12.90070412	        -27.98958797	         -2.68386835	         37.87997988	         -9.79369672	          1.53928753	         -8.48094942	          0.01165275	          0.05621724	          0.01341845	          0.16432783	          0.13440205	          0.07182053	          0.00999999	          0.11011380	          0.02436198	          0.00999999	          0.06923920	          0.00999999	          0.00999999	          0.35773164	          0.05293773	          0.00999999	          0.00999999	          0.01152515	          0.13848831	          0.06859213	          0.03098861	          0.00999999	          0.00999999	          0.00999999	          0.00999999	          0.06918185	          0.07533696	          0.04269405	
          0.10110366	         -3.61820302	         -1.98304858	          6.89672084	          0.13081900	          0.99849680	          0.00583351	         18.81406111	          1.62719094	        -11.29020609	         -3.89006397	         -0.14552332	          0.10624130	         -7.10909475	         -7.59317467	        -13.77728999	        -32.57158369	         -4.20744137	         35.08642974	         -9.55303569	          2.01870496	         -8.42034620	          0.00999999	          0.04531006	          0.01081502	          0.15734422	          0.10832559	          0.07223951	          0.00999999	          0.10856090	          0.01963531	          0.00999999	          0.06056370	          0.00999999	          0.00999999	          0.32229428	          0.04266684	          0.02344152	          0.01345315	          0.00999999	          0.14042732	          0.05615627	          0.02808056	          0.00999999	          0.00999999	          0.00999999	          0.00999999	          0.05575931	          0.06072021	          0.09957969	
